<?xml version="1.0" standalone="no"?>
<!DOCTYPE svg PUBLIC "-//W3C//DTD SVG 20010904//EN"
 "http://www.w3.org/TR/2001/REC-SVG-20010904/DTD/svg10.dtd">
<svg version="1.0" xmlns="http://www.w3.org/2000/svg"
 width="264.000000pt" height="264.000000pt" viewBox="0 0 264.000000 264.000000"
 preserveAspectRatio="xMidYMid meet">
<metadata>
Created by potrace 1.14, written by Peter Selinger 2001-2017
</metadata>
<g transform="translate(0.000000,264.000000) scale(0.100000,-0.100000)"
fill="#000000" stroke="none">
<path d="M1091 2424 c-315 -78 -564 -308 -665 -614 -25 -73 -28 -88 -41 -179
-39 -271 63 -568 265 -771 60 -61 177 -150 197 -150 5 0 8 48 8 108 -1 116 7
157 35 172 10 6 75 10 145 10 l126 0 -40 48 c-82 98 -117 200 -108 320 7 99
34 170 109 284 34 51 82 134 108 185 l46 91 12 -41 c13 -49 75 -149 120 -192
17 -16 54 -52 82 -80 31 -30 65 -78 87 -122 31 -62 36 -83 37 -145 1 -110 -48
-219 -140 -311 l-37 -37 140 0 c191 0 187 3 190 -160 1 -67 4 -124 7 -128 22
-21 244 180 307 278 64 100 70 110 103 198 47 123 60 198 59 342 -1 80 -8 129
-38 261 -2 9 -17 50 -34 91 -101 241 -312 436 -566 523 -148 50 -358 58 -514
19z"/>
<path d="M2453 1210 c-16 -9 -34 -28 -42 -43 -16 -30 -10 -99 11 -120 20 -20
74 -47 93 -47 31 0 81 30 98 59 18 31 23 106 7 116 -19 12 -50 -15 -50 -45 0
-16 -8 -36 -17 -46 -27 -26 -28 0 -3 62 16 38 20 58 12 66 -17 17 -80 16 -109
-2z m45 -80 c-13 -39 -25 -46 -34 -18 -4 15 -1 25 12 35 28 20 34 16 22 -17z"/>
<path d="M135 1141 c-61 -31 -115 -59 -121 -63 -8 -5 3 -36 33 -93 52 -101 87
-127 138 -103 24 11 49 53 40 68 -3 5 7 5 22 1 50 -14 94 24 87 74 -3 25 -76
175 -84 174 -3 -1 -55 -26 -115 -58z m110 -70 c15 -29 12 -61 -6 -61 -5 0 -18
15 -29 33 -19 30 -19 33 -3 45 22 16 20 17 38 -17z m-90 -52 c9 -17 14 -37 11
-45 -10 -25 -33 -15 -51 22 -14 30 -15 38 -4 45 22 14 27 11 44 -22z"/>
<path d="M2332 990 c-12 -12 -23 -26 -24 -33 0 -7 -2 -16 -3 -22 0 -5 -16 -25
-34 -44 -39 -41 -42 -38 103 -131 l98 -64 24 29 c26 33 24 39 -20 66 -17 10
-26 19 -20 19 6 0 23 12 38 26 44 45 32 111 -28 152 -42 29 -104 30 -134 2z
m100 -77 c18 -16 14 -41 -10 -60 -11 -10 -21 -9 -43 3 -34 17 -37 36 -9 64 21
21 30 20 62 -7z"/>
<path d="M275 903 c-26 -5 -68 -40 -84 -71 -31 -58 30 -162 94 -162 31 0 31
46 1 62 -24 13 -36 27 -36 46 0 24 19 12 57 -37 44 -54 60 -55 88 -1 24 47 19
86 -17 124 -33 34 -65 46 -103 39z m59 -78 c8 -9 12 -23 9 -31 -5 -13 -9 -12
-28 8 -32 33 -14 56 19 23z"/>
<path d="M2190 787 c-74 -26 -104 -127 -55 -185 79 -94 237 -7 204 111 -18 66
-82 97 -149 74z m68 -80 c18 -14 15 -55 -6 -66 -23 -12 -65 7 -70 33 -8 39 40
60 76 33z"/>
<path d="M442 725 c-15 -33 -15 -35 1 -35 17 0 57 -42 57 -60 0 -9 -7 -6 -23
8 -38 36 -83 47 -112 28 -52 -34 -37 -103 26 -130 17 -7 30 -16 29 -20 0 -4
11 -16 25 -28 l26 -20 20 23 c11 13 31 36 44 50 54 62 58 94 14 144 -27 30
-76 65 -92 65 -2 0 -9 -11 -15 -25z m22 -146 c-8 -14 -40 -11 -53 5 -19 23 18
40 41 19 10 -9 15 -20 12 -24z"/>
<path d="M1978 691 l-28 -18 29 -44 28 -44 -41 -27 -40 -27 -28 44 -28 44 -34
-20 -35 -21 51 -81 c73 -116 100 -157 105 -157 3 0 18 9 34 21 l29 20 -26 45
c-15 25 -25 46 -23 48 24 18 68 46 72 46 3 0 18 -20 33 -44 l28 -44 31 21 c16
11 31 22 33 23 2 1 -16 33 -41 71 -24 37 -57 89 -73 115 -16 26 -33 47 -39 47
-5 0 -22 -8 -37 -18z"/>
<path d="M614 576 c-69 -31 -87 -120 -36 -176 32 -37 92 -54 119 -35 15 12 16
16 4 39 -8 14 -19 26 -25 25 -55 -6 -72 65 -21 85 20 7 55 -10 55 -28 0 -19
65 -15 66 4 2 68 -92 118 -162 86z"/>
<path d="M1677 547 c-40 -10 -70 -44 -65 -74 1 -10 -1 -23 -5 -30 -11 -18 3
-65 18 -59 8 3 20 -22 35 -70 13 -41 28 -74 34 -74 6 1 23 6 38 13 l27 12 -23
72 -23 71 23 11 c19 8 22 14 15 33 -6 17 -16 22 -35 21 -31 -2 -35 13 -6 22
21 7 24 18 12 46 -6 12 -14 13 -45 6z"/>
<path d="M821 477 c-81 -41 -86 -150 -9 -197 108 -66 226 42 167 152 -26 48
-107 71 -158 45z m83 -73 c19 -19 20 -35 3 -58 -16 -22 -55 -18 -71 6 -7 12
-6 24 4 42 15 29 41 33 64 10z"/>
<path d="M1042 431 c-6 -4 -42 -207 -37 -211 0 -1 17 -3 37 -6 41 -6 37 -13
55 86 6 32 13 46 27 48 32 6 38 -11 27 -79 -12 -70 -8 -77 41 -75 24 1 32 6
34 21 17 159 17 162 -5 184 -23 23 -61 27 -92 11 -15 -8 -19 -7 -19 4 0 14
-52 27 -68 17z"/>
<path d="M1444 415 c-60 -25 -89 -94 -65 -153 44 -105 231 -70 231 44 0 91
-82 145 -166 109z m68 -67 c26 -22 29 -47 8 -68 -15 -15 -25 -17 -42 -11 -30
11 -37 60 -12 78 22 16 26 16 46 1z"/>
</g>
</svg>
